<svg height="512" viewBox="0 0 512 512" width="512" xmlns="http://www.w3.org/2000/svg" xmlns:xlink="http://www.w3.org/1999/xlink"><clipPath id="a"><path d="m0 0h512v512h-512z"/></clipPath><g clip-path="url(#a)"><circle cx="256" cy="256" fill="#013f7e" r="256"/><g fill="#fff"><path d="m307.194 204.826c-1.913-1.914-4.427-2.871-6.94-2.871-2.514 0-5.025.957-6.939 2.871-3.826 3.826-3.826 10.052 0 13.879 3.827 3.826 10.053 3.826 13.879 0 3.827-3.827 3.827-10.053 0-13.879z"/><path d="m325.82 128.447c-12.344 4.977-25.727 11.774-38.397 21.011l-101.813 24.9c-3.005.735-5.379 3.034-6.212 6.015-.832 2.979.005 6.175 2.192 8.362l38.158 38.158c-2.474 4.575-4.484 8.959-6.034 13.159l57.421 57.421c4.201-1.552 8.584-3.561 13.157-6.036l36.838 36.838c1.629 1.629 3.816 2.509 6.056 2.509.769 0 1.546-.104 2.307-.317 2.978-.833 5.277-3.209 6.012-6.214l23.783-97.236c10.491-13.614 18.047-28.245 23.45-41.65zm-6.512 102.371c-5.253 5.253-12.153 7.88-19.054 7.88-6.899 0-13.799-2.627-19.052-7.88-10.506-10.504-10.506-27.599 0-38.106 10.504-10.504 27.599-10.504 38.106 0 10.506 10.507 10.506 27.599 0 38.106z"/><path d="m389.04 167.442c.341-1.135.672-2.253.983-3.342 6.627-23.279 7.614-40.85 7.651-41.585.128-2.424-.778-4.79-2.496-6.508-1.718-1.715-4.081-2.618-6.506-2.496-.737.039-18.308 1.024-41.587 7.654-1.087.308-2.207.639-3.339.982z"/><path d="m203.412 253.977-16.09 6.834c-2.62 1.113-4.516 3.455-5.06 6.249-.541 2.797.339 5.678 2.353 7.691l51.819 51.822c1.622 1.622 3.807 2.509 6.058 2.509.541 0 1.089-.052 1.633-.159 2.794-.541 5.138-2.437 6.251-5.057l6.834-16.091z"/><path d="m197.476 315.007c-3.344-3.344-8.767-3.344-12.111 0l-68.871 68.871c-3.344 3.344-3.344 8.767 0 12.111 1.672 1.675 3.864 2.51 6.055 2.51 2.192 0 4.386-.835 6.058-2.51l68.869-68.868c3.346-3.347 3.346-8.77 0-12.114z"/><path d="m125.905 344.957c2.191 0 4.383-.837 6.055-2.509l40.422-40.422c3.344-3.344 3.344-8.769 0-12.113-3.345-3.344-8.767-3.344-12.114 0l-40.421 40.421c-3.344 3.345-3.344 8.77 0 12.114 1.672 1.672 3.864 2.509 6.058 2.509z"/><path d="m210.459 340.102-40.424 40.421c-3.344 3.344-3.344 8.769 0 12.113 1.673 1.675 3.864 2.51 6.056 2.51s4.386-.837 6.058-2.51l40.421-40.421c3.347-3.344 3.347-8.769 0-12.113-3.344-3.347-8.767-3.347-12.111 0z"/></g></g></svg>