<svg enable-background="new 0 0 49.654 49.654" fill="#013f7e" height="49.654" viewBox="0 0 49.654 49.654" width="49.654" xmlns="http://www.w3.org/2000/svg"><path d="m24.827 0c-13.689 0-24.826 11.138-24.826 24.827 0 13.688 11.137 24.827 24.826 24.827 13.688 0 24.826-11.14 24.826-24.827 0-13.689-11.136-24.827-24.826-24.827zm0 35.891c-11.6 0-17.855-10.825-17.855-10.825s6.255-10.828 17.855-10.828c11.602 0 17.854 10.828 17.854 10.828s-6.252 10.825-17.854 10.825z"/><path d="m24.827 15.832c-5.091 0-9.232 4.142-9.232 9.232s4.142 9.229 9.232 9.229 9.231-4.142 9.231-9.229c.002-5.09-4.14-9.232-9.231-9.232zm0 15.464c-3.437 0-6.232-2.796-6.232-6.23 0-3.438 2.796-6.231 6.232-6.231s6.231 2.796 6.231 6.231c.001 3.434-2.793 6.23-6.231 6.23z"/><path d="m27.124 25.441c-1.229 0-2.225-.997-2.225-2.228 0-1.103.809-2.015 1.868-2.188-.59-.284-1.24-.457-1.938-.457-2.48 0-4.494 2.017-4.494 4.496 0 2.481 2.014 4.493 4.494 4.493 2.479 0 4.494-2.012 4.494-4.493 0-.358-.054-.703-.134-1.037-.325.828-1.126 1.414-2.065 1.414z"/></svg>