<svg height="1200" viewBox="0 0 1200 1200" width="1200" xmlns="http://www.w3.org/2000/svg" xmlns:xlink="http://www.w3.org/1999/xlink"><clipPath id="a"><path d="m0 0h1200v1200h-1200z"/></clipPath><g clip-path="url(#a)"><circle cx="600" cy="600" fill="#013f7e" r="600"/><g fill="#fff"><path d="m821.195 876.363h-90.04c-3.25 0-5.904-2.653-5.904-5.905v-21.916c0-3.248-2.656-5.904-5.904-5.904h-125.99c-3.25 0-5.906 2.656-5.906 5.904v21.916c0 3.252-2.656 5.905-5.906 5.905h-67.69c-3.25 0-5.906 2.656-5.906 5.904v25.354c0 3.248 2.656 5.904 5.906 5.904h307.336c3.248 0 5.904-2.656 5.904-5.904v-25.354c.004-3.242-2.652-5.904-5.9-5.904z"/><path d="m972.47 283.585h-642.5c-22.354 0-40.54 18.188-40.54 40.546v105.752c0 13.982-1.037 15.959 8.342 15.959h16.083c7.871 0 6.256-1.977 6.256-16.219 0-28.377 0-105.492 0-105.492 0-5.344 4.517-9.86 9.859-9.86h642.5c5.339 0 9.856 4.516 9.856 9.86v395.832h-458.062s-16.144-.03-16.144 20.845v49.513c0 20.846 16.666 20.846 16.666 20.846h447.684c22.352 0 40.544-18.186 40.544-40.54v-446.496c0-22.356-18.188-40.546-40.544-40.546zm-321.248 492.575c-10.094 0-18.273-8.179-18.273-18.266 0-10.088 8.179-18.271 18.273-18.271 10.083 0 18.264 8.183 18.264 18.271 0 10.087-8.181 18.266-18.264 18.266z"/><path d="m445.58 482.054h-232.429c-14.431 0-26.165 11.736-26.165 26.167v382.025c0 14.429 11.734 26.169 26.165 26.169h232.429c14.423 0 26.165-11.74 26.165-26.169v-382.025c0-14.431-11.742-26.167-26.165-26.167zm-144.885 26.688h57.339c2.736 0 4.959 2.216 4.959 4.96 0 2.738-2.221 4.956-4.959 4.956h-57.339c-2.74 0-4.956-2.218-4.956-4.956 0-2.744 2.216-4.96 4.956-4.96zm28.323 389.293c-7.479 0-13.542-6.062-13.542-13.541s6.063-13.542 13.542-13.542 13.541 6.063 13.541 13.542-6.062 13.541-13.541 13.541zm120.246-39.8c0 3.492-2.796 6.348-6.209 6.348h-227.373c-3.414 0-6.208-2.856-6.208-6.348v-317.448c0-3.491 2.796-6.345 6.208-6.345h227.373c3.415 0 6.209 2.856 6.209 6.345z"/></g></g></svg>